<svg width="1010" height="790" viewBox="0 0 1010 790" fill="none" xmlns="http://www.w3.org/2000/svg">
<path opacity="0.1" d="M453.392 435.1L434.514 438.761V410.596L452.197 406.094L453.392 435.1Z" fill="white"/>
<path opacity="0.1" d="M342.456 423.574V442.207L321.389 440.037V423.574H342.456Z" fill="white"/>
<path opacity="0.1" d="M314.971 429.446V439.359L293.917 437.176V429.446H314.971Z" fill="white"/>
<path d="M318.435 453.164L421.825 436.172V535.029L323.591 529.835L318.435 453.164Z" fill="#3C9940"/>
<path opacity="0.05" d="M318.435 453.164L421.825 436.172V535.029L323.591 529.835L318.435 453.164Z" fill="black"/>
<path d="M421.825 436.172L545.812 445.543L538.951 531.571L421.825 535.029V436.172Z" fill="#3C9940"/>
<path opacity="0.1" d="M421.825 436.172L545.812 445.543L538.951 531.571L421.825 535.029V436.172Z" fill="black"/>
<path d="M459.945 406L421.825 436.172L545.812 445.543L566.074 414.665L459.945 406Z" fill="#3C9940"/>
<path d="M281 420.211L374.078 408.766L421.825 436.172L318.435 453.163L281 420.211Z" fill="#3C9940"/>
<path d="M444.49 461.842V597L396.058 591.983L374.991 589.813L368.573 589.135L347.519 586.952L318.435 583.941V453.163L421.812 460.269L444.49 461.842Z" fill="#3C9940"/>
<path d="M545.812 445.542V577.351L506.994 584.877L488.115 588.538L444.49 597V461.842L545.812 445.542Z" fill="#3C9940"/>
<path opacity="0.05" d="M545.812 445.542V577.351L506.994 584.877L488.115 588.538L444.49 597V461.842L545.812 445.542Z" fill="black"/>
<path d="M281 481.613L318.435 453.163L444.49 461.842L425.934 493.411L281 481.613Z" fill="#3C9940"/>
<path opacity="0.1" d="M281 481.613L318.435 453.163L444.49 461.842L425.934 493.411L281 481.613Z" fill="white"/>
<path d="M545.812 445.542L444.49 461.842L477.468 491.675L586 473.287L545.812 445.542Z" fill="#3C9940"/>
<path opacity="0.1" d="M545.812 445.542L444.49 461.842L477.468 491.675L586 473.287L545.812 445.542Z" fill="white"/>
<path opacity="0.1" d="M749.934 118.241C749.934 118.241 712.054 114.021 715.184 140.881C715.184 140.881 714.054 145.541 718.184 147.881C718.184 147.881 718.354 145.881 722.184 146.771C723.536 147.072 724.919 147.21 726.304 147.181C728.175 147.153 729.984 146.51 731.454 145.351C731.454 145.351 742.364 141.481 747.404 124.241C747.404 124.241 750.664 120.581 750.594 119.601L744.044 122.011C744.044 122.011 746.044 126.751 744.044 130.511C744.044 130.511 744.254 122.191 743.044 122.331C742.794 122.331 739.634 123.761 739.634 123.761C739.634 123.761 742.994 132.011 739.854 137.761C739.854 137.761 741.434 127.891 738.424 124.321L733.774 126.731C733.774 126.731 737.774 135.281 734.434 141.921C734.434 141.921 735.724 131.541 732.794 127.321L728.544 130.321C728.544 130.321 732.264 138.731 729.454 144.231C729.454 144.231 729.744 132.091 727.614 131.071C727.614 131.071 723.884 134.071 723.264 135.311C723.264 135.311 725.804 141.411 723.884 144.461C723.884 144.461 723.214 136.331 722.334 136.251C722.334 136.251 718.494 141.421 717.934 145.071C718.281 141.687 719.508 138.453 721.494 135.691C719.417 135.973 717.47 136.86 715.894 138.241C715.894 138.241 716.634 134.481 722.434 134.441C722.434 134.441 725.594 130.531 726.434 130.331C726.434 130.331 720.704 129.551 717.134 130.921C717.134 130.921 720.384 127.511 727.534 129.501L731.734 126.411C731.734 126.411 724.214 124.991 720.944 125.971C720.944 125.971 724.804 122.971 732.864 125.711L737.394 123.311C737.394 123.311 731.004 121.591 727.134 121.901C727.134 121.901 731.304 119.901 738.714 122.671L741.934 121.411C741.934 121.411 737.244 120.241 735.864 120.031C734.484 119.821 734.434 119.431 734.434 119.431C737.456 119.078 740.517 119.573 743.274 120.861C743.274 120.861 750.034 118.671 749.934 118.241Z" fill="#3C9940"/>
<path d="M294.187 364V362.154L296.574 361.744V344.942L294.187 344.532V342.672H301.848V344.532L299.46 344.942V361.744L301.848 362.154V364H294.187ZM304.426 364V362.154L306.813 361.744V344.942L304.426 344.532V342.672H310.666L317.536 358.858H317.624L324.274 342.672H330.705V344.532L328.317 344.942V361.744L330.705 362.154V364H323.044V362.154L325.563 361.744V346.612L325.49 346.598L318.562 363.238H316.643L309.479 346.627L309.406 346.642L309.509 355.562V361.744L312.087 362.154V364H304.426ZM333.107 364V362.154L334.689 361.935L342.146 342.672H344.621L351.945 361.935L353.513 362.154V364H347.39V362.154L349.001 361.876L347.595 357.95H339.055L337.604 361.876L339.216 362.154V364H333.107ZM339.948 355.533H346.716L343.581 346.861L343.405 346.378H343.317L343.142 346.861L339.948 355.533ZM364.338 364.308C362.365 364.308 360.656 363.854 359.211 362.945C357.766 362.027 356.652 360.758 355.871 359.137C355.09 357.516 354.699 355.641 354.699 353.512V353.16C354.699 351.012 355.09 349.132 355.871 347.521C356.662 345.899 357.741 344.635 359.108 343.727C360.476 342.818 362.028 342.364 363.767 342.364C365.427 342.364 366.833 342.555 367.985 342.936C369.147 343.316 370.139 343.829 370.959 344.474V348.78H368.586L368.278 345.689C367.321 345.055 365.915 344.737 364.06 344.737C362.839 344.737 361.74 345.089 360.764 345.792C359.787 346.495 359.016 347.477 358.449 348.736C357.883 349.986 357.6 351.451 357.6 353.131V353.512C357.6 355.211 357.858 356.695 358.376 357.965C358.903 359.225 359.67 360.206 360.676 360.909C361.682 361.603 362.902 361.949 364.338 361.949C365.314 361.949 366.14 361.866 366.813 361.7C367.487 361.524 368.083 361.3 368.601 361.026V356.017L364.514 355.87V353.746H371.486V362.008C370.871 362.584 369.987 363.111 368.835 363.59C367.692 364.068 366.193 364.308 364.338 364.308ZM374.431 364V362.154L376.818 361.744V344.942L374.431 344.532V342.672H390.222V347.799H387.907L387.585 344.898H379.704V351.842H387.57V354.112H379.704V361.832H388.054L388.376 358.888H390.676V364H374.431ZM401.062 364V362.154L403.449 361.744V344.942L401.062 344.532V342.672H406.364L416.823 359.298L416.911 359.269V344.942L414.289 344.532V342.672H421.95V344.532L419.562 344.942V364H416.926L406.188 347.286L406.101 347.315V361.744L408.723 362.154V364H401.062ZM433.054 364.308C431.218 364.308 429.636 363.849 428.308 362.931C426.989 362.013 425.974 360.743 425.261 359.122C424.548 357.491 424.191 355.616 424.191 353.497V353.189C424.191 351.07 424.543 349.2 425.246 347.579C425.959 345.948 426.979 344.674 428.308 343.756C429.636 342.828 431.218 342.364 433.054 342.364C434.997 342.364 436.623 342.828 437.932 343.756C439.25 344.674 440.246 345.948 440.92 347.579C441.594 349.2 441.931 351.07 441.931 353.189V353.497C441.931 355.616 441.594 357.491 440.92 359.122C440.246 360.743 439.25 362.013 437.932 362.931C436.623 363.849 434.997 364.308 433.054 364.308ZM433.054 361.905C434.47 361.905 435.612 361.554 436.481 360.851C437.36 360.147 438.005 359.166 438.415 357.906C438.825 356.637 439.03 355.167 439.03 353.497V353.16C439.03 351.5 438.82 350.045 438.4 348.795C437.99 347.535 437.346 346.554 436.467 345.851C435.588 345.138 434.45 344.781 433.054 344.781C431.774 344.781 430.69 345.138 429.802 345.851C428.913 346.563 428.239 347.55 427.78 348.81C427.321 350.06 427.092 351.51 427.092 353.16V353.497C427.092 355.157 427.321 356.622 427.78 357.892C428.239 359.151 428.913 360.138 429.802 360.851C430.69 361.554 431.774 361.905 433.054 361.905ZM449.006 364V362.154L451.394 361.744V344.854H446.56L446.135 347.813H443.967V342.672H461.691V347.813H459.553L459.113 344.854H454.279V361.744L456.667 362.154V364H449.006ZM471.813 364V362.154L474.201 361.744V344.942L471.813 344.532V342.672H487.854V347.799H485.539L485.217 344.913H477.087V352.296H484.895V354.566H477.087V361.744L479.475 362.154V364H471.813ZM498.181 364.308C496.345 364.308 494.763 363.849 493.435 362.931C492.116 362.013 491.101 360.743 490.388 359.122C489.675 357.491 489.318 355.616 489.318 353.497V353.189C489.318 351.07 489.67 349.2 490.373 347.579C491.086 345.948 492.106 344.674 493.435 343.756C494.763 342.828 496.345 342.364 498.181 342.364C500.124 342.364 501.75 342.828 503.059 343.756C504.377 344.674 505.373 345.948 506.047 347.579C506.721 349.2 507.058 351.07 507.058 353.189V353.497C507.058 355.616 506.721 357.491 506.047 359.122C505.373 360.743 504.377 362.013 503.059 362.931C501.75 363.849 500.124 364.308 498.181 364.308ZM498.181 361.905C499.597 361.905 500.739 361.554 501.608 360.851C502.487 360.147 503.132 359.166 503.542 357.906C503.952 356.637 504.157 355.167 504.157 353.497V353.16C504.157 351.5 503.947 350.045 503.527 348.795C503.117 347.535 502.473 346.554 501.594 345.851C500.715 345.138 499.577 344.781 498.181 344.781C496.901 344.781 495.817 345.138 494.929 345.851C494.04 346.563 493.366 347.55 492.907 348.81C492.448 350.06 492.219 351.51 492.219 353.16V353.497C492.219 355.157 492.448 356.622 492.907 357.892C493.366 359.151 494.04 360.138 494.929 360.851C495.817 361.554 496.901 361.905 498.181 361.905ZM519.157 364.308C517.692 364.308 516.384 364.02 515.231 363.443C514.079 362.867 513.171 362.047 512.507 360.982C511.843 359.908 511.511 358.624 511.511 357.13V344.942L509.123 344.532V342.672H516.784V344.532L514.396 344.942V357.13C514.396 358.722 514.841 359.933 515.729 360.763C516.618 361.583 517.775 361.993 519.201 361.993C520.637 361.993 521.809 361.588 522.717 360.777C523.635 359.967 524.094 358.751 524.094 357.13V344.942L521.706 344.532V342.672H529.367V344.532L526.979 344.942V357.13C526.979 359.444 526.262 361.222 524.826 362.462C523.4 363.692 521.511 364.308 519.157 364.308ZM531.608 364V362.154L533.996 361.744V344.942L531.608 344.532V342.672H536.911L547.37 359.298L547.458 359.269V344.942L544.836 344.532V342.672H552.497V344.532L550.109 344.942V364H547.473L536.735 347.286L536.647 347.315V361.744L539.27 362.154V364H531.608ZM554.899 364V362.154L557.287 361.744V344.942L554.899 344.532V342.672H563.249C565.134 342.672 566.774 343.121 568.171 344.02C569.577 344.918 570.671 346.153 571.452 347.726C572.233 349.298 572.624 351.095 572.624 353.116V353.57C572.624 355.543 572.248 357.32 571.496 358.902C570.744 360.475 569.675 361.72 568.288 362.638C566.911 363.546 565.28 364 563.396 364H554.899ZM560.173 361.744H563.249C564.597 361.744 565.754 361.378 566.721 360.646C567.688 359.903 568.43 358.917 568.947 357.687C569.475 356.446 569.738 355.074 569.738 353.57V353.087C569.738 351.534 569.475 350.147 568.947 348.927C568.43 347.696 567.688 346.725 566.721 346.012C565.754 345.299 564.597 344.942 563.249 344.942H560.173V361.744Z" fill="black"/>
<path opacity="0.1" d="M878.921 108.049C878.921 108.049 840.921 105.759 845.361 132.419C845.361 132.419 844.471 137.129 848.741 139.269C848.741 139.269 848.811 137.269 852.651 137.959C854.015 138.189 855.401 138.256 856.781 138.159C858.629 138.025 860.383 137.295 861.781 136.079C861.781 136.079 872.481 131.659 876.641 114.179C876.641 114.179 879.711 110.369 879.591 109.389L873.171 112.129C873.171 112.129 875.361 116.759 873.641 120.609C873.641 120.609 873.431 112.299 872.201 112.489C871.951 112.489 868.861 114.099 868.861 114.099C868.861 114.099 872.641 122.169 869.791 128.029C869.791 128.029 870.871 118.089 867.681 114.679L863.211 117.289C863.211 117.289 867.621 125.619 864.631 132.419C864.631 132.419 865.401 121.989 862.261 117.929L858.171 121.129C858.171 121.129 862.311 129.339 859.791 134.979C859.791 134.979 859.461 122.839 857.281 121.919C857.281 121.919 853.701 125.079 853.151 126.379C853.151 126.379 855.991 132.379 854.231 135.489C854.231 135.489 853.151 127.399 852.231 127.359C852.231 127.359 848.661 132.719 848.291 136.359C848.469 132.965 849.531 129.677 851.371 126.819C849.311 127.209 847.409 128.193 845.901 129.649C845.901 129.649 846.461 125.859 852.251 125.529C852.251 125.529 855.201 121.459 855.991 121.209C855.991 121.209 850.231 120.729 846.741 122.279C846.741 122.279 849.811 118.709 857.041 120.329L861.041 117.029C861.041 117.029 853.451 116.029 850.241 117.139C850.241 117.139 853.941 113.979 862.131 116.279L866.531 113.649C866.531 113.649 860.061 112.259 856.211 112.759C856.211 112.759 860.281 110.569 867.821 112.939L870.971 111.529C870.971 111.529 866.231 110.599 864.841 110.449C863.451 110.299 863.381 109.919 863.381 109.919C866.383 109.42 869.465 109.766 872.281 110.919C872.281 110.919 879.041 108.469 878.921 108.049Z" fill="#3C9940"/>
<path opacity="0.1" d="M855.51 375.33C855.51 375.33 844.99 338.7 821.33 351.85C821.33 351.85 816.59 352.58 816 357.32C816 357.32 817.88 356.73 818.53 360.56C818.771 361.935 819.174 363.278 819.73 364.56C820.472 366.283 821.757 367.716 823.39 368.64C823.39 368.64 831.13 377.24 848.99 375.32C848.99 375.32 853.61 376.94 854.49 376.5L849.76 371.36C849.76 371.36 846.13 374.98 841.93 374.64C841.93 374.64 849.69 371.64 849.09 370.57C848.97 370.35 846.47 367.96 846.47 367.96C846.47 367.96 840.13 374.22 833.65 373.49C833.65 373.49 843.38 371.19 845.52 367.05L841.52 363.67C841.52 363.67 835.14 370.61 827.73 370.07C827.73 370.07 837.81 367.3 840.59 362.99L836.21 360.2C836.21 360.2 829.86 366.85 823.7 366.35C823.7 366.35 835.03 361.98 835.17 359.63C835.17 359.63 830.99 357.31 829.58 357.23C829.58 357.23 824.91 361.89 821.36 361.29C821.36 361.29 828.62 357.56 828.36 356.72C828.36 356.72 822.12 355.15 818.53 356.02C821.781 355.055 825.228 354.955 828.53 355.73C827.472 353.92 825.908 352.46 824.03 351.53C824.03 351.53 827.79 350.78 830.03 356.13C830.03 356.13 834.84 357.55 835.34 358.21C835.34 358.21 833.87 352.62 831.24 349.85C831.24 349.85 835.64 351.55 836.53 358.91L840.99 361.62C840.99 361.62 839.43 354.12 837.27 351.48C837.27 351.48 841.49 353.91 842.06 362.39L846.06 365.66C846.06 365.66 845.21 359.1 843.45 355.66C843.45 355.66 846.88 358.76 847.16 366.66L849.54 369.16C849.54 369.16 848.84 364.38 848.54 363.02C848.24 361.66 848.54 361.47 848.54 361.47C850.02 364.129 850.73 367.149 850.59 370.19C850.59 370.19 855.15 375.57 855.51 375.33Z" fill="#3C9940"/>
<path d="M620.174 382.067C620.174 382.067 589.656 359.233 578.737 383.971C578.737 383.971 575.401 387.413 577.791 391.553C577.791 391.553 578.927 389.933 581.766 392.599C582.779 393.545 583.901 394.366 585.109 395.044C586.735 395.965 588.62 396.325 590.471 396.066C590.471 396.066 601.83 398.258 614.909 385.92C614.909 385.92 619.573 384.428 620.007 383.544L613.136 382.303C613.136 382.303 612.426 387.373 608.864 389.642C608.864 389.642 613.264 382.586 612.131 382.071C611.891 381.965 608.458 381.571 608.458 381.571C608.458 381.571 607.171 390.389 601.589 393.713C601.589 393.713 607.959 386.001 607.169 381.413L601.959 381.173C601.959 381.173 601.061 390.565 594.82 394.596C594.82 394.596 601.199 386.306 600.809 381.195L595.633 381.612C595.633 381.612 594.563 390.718 589.37 394.065C589.37 394.065 595.761 383.746 594.451 381.789C594.451 381.789 589.724 382.452 588.557 383.24C588.557 383.24 587.645 389.779 584.448 391.442C584.448 391.442 587.994 384.101 587.278 383.576C587.278 383.576 581.349 386.091 579.019 388.954C581.034 386.215 583.73 384.051 586.839 382.675C584.904 381.869 582.775 381.646 580.715 382.034C580.715 382.034 583.261 379.169 588.307 382.065C588.307 382.065 592.99 380.305 593.805 380.519C593.805 380.519 589.274 376.987 585.492 376.326C585.492 376.326 590.021 375.031 595.17 380.364L600.363 379.832C600.363 379.832 594.601 374.796 591.278 373.989C591.278 373.989 596.113 373.378 601.683 379.804L606.809 380.025C606.809 380.025 602.178 375.311 598.741 373.63C598.741 373.63 603.335 374.029 608.338 380.159L611.741 380.717C611.741 380.717 608.299 377.328 607.218 376.445C606.137 375.562 606.292 375.205 606.292 375.205C609.072 376.436 611.457 378.415 613.18 380.921C613.18 380.921 620.032 382.483 620.174 382.067Z" fill="#3C9940"/>
<path d="M625.547 475.797C625.547 475.797 614.027 439.466 590.748 453.222C590.748 453.222 586.032 454.079 585.565 458.837C585.565 458.837 587.432 458.181 588.188 462.001C588.46 463.36 588.895 464.68 589.483 465.935C590.268 467.631 591.592 469.021 593.247 469.888V469.888C593.247 469.888 601.207 478.283 619.023 475.865C619.023 475.865 623.685 477.367 624.552 476.901L619.688 471.893C619.688 471.893 616.159 475.601 611.942 475.373C611.942 475.373 619.628 472.197 619.005 471.118C618.873 470.893 616.31 468.574 616.31 468.574C616.31 468.574 610.13 474.994 603.656 474.447C603.656 474.447 613.325 471.885 615.354 467.695L611.258 464.466C611.258 464.466 605.06 471.58 597.639 471.224C597.639 471.224 607.651 468.198 610.31 463.815L605.859 461.141C605.859 461.141 599.688 467.922 593.517 467.62C593.517 467.62 604.721 462.95 604.795 460.596C604.795 460.596 600.565 458.384 599.158 458.345C599.158 458.345 594.609 463.131 591.042 462.622C591.042 462.622 598.199 458.718 597.922 457.873C597.922 457.873 591.637 456.467 588.076 457.438C591.309 456.385 594.761 456.194 598.09 456.886C596.986 455.104 595.385 453.683 593.484 452.799C593.484 452.799 597.222 451.952 599.639 457.245C599.639 457.245 604.471 458.54 605.008 459.188C605.008 459.188 603.381 453.678 600.69 450.939C600.69 450.939 605.127 452.523 606.209 459.856L610.74 462.447C610.74 462.447 608.988 454.999 606.755 452.407C606.755 452.407 611.042 454.726 611.83 463.193L615.87 466.357C615.87 466.357 614.848 459.828 613.032 456.46C613.032 456.46 616.535 459.459 617.034 467.356L619.477 469.791C619.477 469.791 618.651 465.031 618.286 463.684C617.921 462.337 618.255 462.137 618.255 462.137C619.799 464.757 620.586 467.754 620.528 470.794C620.528 470.794 625.19 476.053 625.547 475.797Z" fill="#3C9940"/>
<path d="M221.506 353.236C221.506 353.236 232.977 389.584 256.275 375.859C256.275 375.859 260.992 375.009 261.465 370.252C261.465 370.252 259.598 370.904 258.846 367.084C258.576 365.725 258.143 364.403 257.557 363.148C256.774 361.451 255.453 360.06 253.798 359.19V359.19C253.798 359.19 245.85 350.784 228.03 353.177C228.03 353.177 223.371 351.669 222.503 352.134L227.36 357.149C227.36 357.149 230.894 353.445 235.111 353.68C235.111 353.68 227.421 356.845 228.042 357.924C228.174 358.15 230.733 360.472 230.733 360.472C230.733 360.472 236.922 354.061 243.395 354.616C243.395 354.616 233.723 357.165 231.688 361.352L235.78 364.587C235.78 364.587 241.987 357.481 249.408 357.847C249.408 357.847 239.392 360.86 236.727 365.239L241.174 367.92C241.174 367.92 247.355 361.147 253.526 361.457C253.526 361.457 242.315 366.112 242.238 368.466C242.238 368.466 246.464 370.684 247.872 370.725C247.872 370.725 252.427 365.945 255.994 366.459C255.994 366.459 248.831 370.353 249.107 371.198C249.107 371.198 255.39 372.613 258.952 371.647C255.718 372.696 252.266 372.881 248.938 372.186C250.04 373.969 251.639 375.392 253.538 376.278C253.538 376.278 249.799 377.12 247.389 371.824C247.389 371.824 242.559 370.523 242.022 369.874C242.022 369.874 243.642 375.386 246.329 378.128C246.329 378.128 241.894 376.539 240.823 369.204L236.295 366.607C236.295 366.607 238.037 374.058 240.266 376.652C240.266 376.652 235.982 374.328 235.206 365.86L231.171 362.69C231.171 362.69 232.183 369.221 233.995 372.591C233.995 372.591 230.496 369.587 230.008 361.689L227.568 359.251C227.568 359.251 228.388 364.012 228.751 365.36C229.114 366.708 228.78 366.907 228.78 366.907C227.239 364.285 226.457 361.287 226.519 358.246C226.519 358.246 221.864 352.981 221.506 353.236Z" fill="#3C9940"/>
<path d="M175.839 453.313C175.839 453.313 204.877 478.002 217.314 453.992C217.314 453.992 220.857 450.764 218.73 446.483C218.73 446.483 217.495 448.029 214.828 445.192C213.876 444.185 212.807 443.296 211.643 442.544C210.078 441.523 208.219 441.047 206.355 441.19V441.19C206.355 441.19 195.155 438.295 181.334 449.795C181.334 449.795 176.586 450.994 176.097 451.849L182.877 453.515C182.877 453.515 183.902 448.499 187.598 446.456C187.598 446.456 182.767 453.225 183.867 453.809C184.099 453.93 187.501 454.537 187.501 454.537C187.501 454.537 189.335 445.817 195.113 442.846C195.113 442.846 188.275 450.146 188.778 454.775L193.963 455.339C193.963 455.339 195.443 446.021 201.924 442.386C201.924 442.386 195.041 450.263 195.112 455.388L200.303 455.295C200.303 455.295 201.938 446.273 207.33 443.255C207.33 443.255 200.309 453.157 201.495 455.192C201.495 455.192 206.254 454.824 207.468 454.11C207.468 454.11 208.785 447.64 212.079 446.18C212.079 446.18 208.083 453.285 208.765 453.855C208.765 453.855 214.839 451.713 217.343 449.001C215.161 451.609 212.336 453.601 209.147 454.781C211.028 455.706 213.139 456.061 215.219 455.802C215.219 455.802 212.5 458.503 207.643 455.298C207.643 455.298 202.86 456.763 202.061 456.499C202.061 456.499 206.363 460.307 210.097 461.201C210.097 461.201 205.495 462.212 200.689 456.569L195.473 456.776C195.473 456.776 200.909 462.161 204.176 463.173C204.176 463.173 199.312 463.482 194.153 456.722L189.051 456.182C189.051 456.182 193.38 461.176 196.706 463.067C196.706 463.067 192.145 462.383 187.534 455.953L184.171 455.185C184.171 455.185 187.396 458.782 188.42 459.73C189.444 460.679 189.267 461.025 189.267 461.025C186.568 459.623 184.312 457.5 182.748 454.892C182.748 454.892 176.006 452.907 175.839 453.313Z" fill="#3C9940"/>
<path opacity="0.1" d="M530.863 226.923C481.115 225.255 433.735 209.698 388.491 192.681C343.248 175.664 298.434 156.816 249.878 147.801C218.647 142.003 182.927 141.176 157.769 157.374C133.548 173.006 125.723 199.916 121.519 224.905C118.352 243.709 116.492 263.502 125.162 281.107C131.188 293.33 141.873 303.603 149.267 315.312C174.995 356.045 156.808 406.277 128.936 446.049C115.869 464.704 100.688 482.525 90.5954 502.363C80.5028 522.201 75.837 545.009 84.669 565.301C93.4163 585.4 114.27 600.466 136.861 611.074C182.743 632.624 236.788 638.787 289.526 642.286C406.232 650.013 523.553 646.67 640.567 643.313C683.873 642.078 727.364 640.82 769.964 634.336C793.623 630.733 818.044 625.016 835.223 611.215C857.023 593.7 862.426 564.043 847.814 542.083C823.309 505.236 755.574 496.087 738.425 456.553C729.002 434.787 738.679 410.549 752.384 390.369C781.778 347.068 831.042 309.081 833.632 259.594C835.416 225.605 811.733 191.564 775.114 175.478C736.734 158.617 683.504 160.739 655.202 188.646C626.031 217.35 574.792 228.404 530.863 226.923Z" fill="#3C9940"/>
</svg>
